<?xml version="1.0" encoding="utf-8"?>
<!-- Generator: Adobe Illustrator 25.0.1, SVG Export Plug-In . SVG Version: 6.00 Build 0)  -->
<svg version="1.1" id="Layer_1" xmlns="http://www.w3.org/2000/svg" xmlns:xlink="http://www.w3.org/1999/xlink" x="0px" y="0px"
	 viewBox="0 0 340 211" style="enable-background:new 0 0 340 211;" xml:space="preserve">
<style type="text/css">
	.st0{enable-background:new    ;}
	.st1{fill:#3F4248;}
	.st2{fill:#FFDA6B;}
	.st3{fill:#262C38;}
	.st4{fill:none;stroke:#262C38;stroke-width:5;stroke-linecap:round;stroke-linejoin:round;stroke-miterlimit:10;}
</style>
<g id="Group_8019" transform="translate(-790 -214)">
	<g class="st0">
		<path class="st1" d="M877.8,339.5v17.7h-82l-1.1-13.7l47.4-75.2h17.9l-19.4,32.4l-23.6,38.8H877.8z M864.9,268.2V382h-22.5V268.2
			H864.9z"/>
		<path class="st1" d="M998.5,315.1v19.7c0,8.5-0.9,15.9-2.7,22.1c-1.8,6.2-4.4,11.2-7.9,15.2c-3.4,3.9-7.5,6.8-12.1,8.7
			s-9.9,2.8-15.6,2.8c-4.6,0-8.9-0.6-12.8-1.8c-4-1.2-7.5-3-10.7-5.5c-3.2-2.5-5.9-5.7-8.1-9.5s-4-8.4-5.2-13.7
			c-1.2-5.3-1.8-11.4-1.8-18.3v-19.7c0-8.5,0.9-15.9,2.8-22c1.8-6.1,4.5-11.1,7.9-15c3.4-3.9,7.5-6.8,12.1-8.6
			c4.7-1.8,9.9-2.8,15.6-2.8c4.6,0,8.8,0.6,12.8,1.8c3.9,1.2,7.5,3,10.7,5.4c3.2,2.4,5.9,5.6,8.1,9.4c2.2,3.8,4,8.4,5.2,13.7
			C997.9,302.2,998.5,308.3,998.5,315.1z M975.9,337.8v-25.7c0-4.1-0.2-7.7-0.7-10.8c-0.4-3.1-1.1-5.7-2-7.9c-0.9-2.2-2-3.9-3.3-5.3
			c-1.3-1.4-2.8-2.3-4.5-3c-1.7-0.6-3.5-0.9-5.5-0.9c-2.6,0-4.8,0.5-6.8,1.5c-2,1-3.6,2.6-5,4.7c-1.4,2.2-2.4,5-3.1,8.6
			c-0.7,3.6-1.1,7.9-1.1,13v25.7c0,4.1,0.2,7.7,0.7,10.9c0.4,3.1,1.1,5.8,2,8c0.9,2.2,2,4,3.3,5.4c1.3,1.4,2.8,2.4,4.5,3
			c1.7,0.6,3.6,0.9,5.6,0.9c2.5,0,4.7-0.5,6.7-1.5s3.6-2.6,5-4.8c1.4-2.2,2.4-5.1,3.1-8.7C975.6,347.3,975.9,342.9,975.9,337.8z"/>
		<path class="st1" d="M1125.4,339.5v17.7h-82l-1.1-13.7l47.4-75.2h17.9l-19.4,32.4l-23.6,38.8H1125.4z M1112.5,268.2V382H1090
			V268.2H1112.5z"/>
	</g>
	<g id="Group_1019" transform="translate(901.254 265.253)">
		<circle id="Ellipse_96" class="st2" cx="59.2" cy="59.2" r="59.5"/>
		<ellipse id="Ellipse_97" class="st3" cx="59.2" cy="82.8" rx="17.5" ry="23.6"/>
		
			<ellipse id="Ellipse_98" transform="matrix(0.1496 -0.9887 0.9887 0.1496 -17.1425 69.3585)" class="st3" cx="31.7" cy="44.6" rx="12.3" ry="8.7"/>
		
			<ellipse id="Ellipse_99" transform="matrix(0.9887 -0.1496 0.1496 0.9887 -5.7061 13.4472)" class="st3" cx="86.5" cy="44.7" rx="8.7" ry="12.3"/>
		<path id="Path_2970" class="st4" d="M25.3,17.5c0,0,5.5-7.7,13.8-2.3 M93.2,17.5c0,0-5.5-7.7-13.8-2.3"/>
	</g>
</g>
</svg>
