<svg xmlns="http://www.w3.org/2000/svg" width="31.157" height="29.724" viewBox="0 0 31.157 29.724">
  <g id="Group_8285" data-name="Group 8285" transform="translate(-4994 -4853.638)">
    <g id="Group_8278" data-name="Group 8278" transform="translate(4745.227 4614.323)">
      <g id="Group_8277" data-name="Group 8277" transform="translate(248.773 239.315)">
        <g id="Group_8273" data-name="Group 8273" transform="translate(0 0)">
          <g id="Group_8266" data-name="Group 8266">
            <g id="Group_8257" data-name="Group 8257" transform="translate(19.366 22.665)">
              <g id="Group_8256" data-name="Group 8256">
                <path id="Path_14863" data-name="Path 14863" d="M294.916,294.652h-3.251v-.671h3.251a3.574,3.574,0,0,0,3-2l.094-.227c.506-1.217.828-2.023.893-2.208l.01-.027v0l.015,0h.645v.076a14.975,14.975,0,0,1-.944,2.416l-.095.227A4.247,4.247,0,0,1,294.916,294.652Z" transform="translate(-291.665 -289.512)" fill="#757575"/>
              </g>
            </g>
            <g id="Group_8260" data-name="Group 8260" transform="translate(3.316)">
              <g id="Group_8258" data-name="Group 8258">
                <path id="Path_14864" data-name="Path 14864" d="M267.4,239.315a11.323,11.323,0,0,0-11.278,11.341v1.908h1.641v-1.908a9.676,9.676,0,0,1,9.637-9.694h.984v-1.647Z" transform="translate(-256.118 -239.315)" fill="#757575"/>
              </g>
              <g id="Group_8259" data-name="Group 8259" transform="translate(12.262)">
                <path id="Path_14865" data-name="Path 14865" d="M284.261,239.315h-.985v1.647h.985a9.676,9.676,0,0,1,9.637,9.694v1.908h1.64v-1.908A11.322,11.322,0,0,0,284.261,239.315Z" transform="translate(-283.276 -239.315)" fill="#474747"/>
              </g>
            </g>
            <g id="Group_8265" data-name="Group 8265" transform="translate(0 12.208)">
              <g id="Group_8261" data-name="Group 8261" transform="translate(26.879)">
                <path id="Path_14866" data-name="Path 14866" d="M311.946,267.6a3.448,3.448,0,0,0-2.25-1.152,2.712,2.712,0,0,0-1.392,0v12.377a2.712,2.712,0,0,0,1.392,0,3.444,3.444,0,0,0,2.25-1.153C312.795,276.608,312.795,268.656,311.946,267.6Z" transform="translate(-308.305 -266.353)" fill="#757575"/>
              </g>
              <g id="Group_8262" data-name="Group 8262" transform="translate(25.183 0.09)">
                <path id="Path_14867" data-name="Path 14867" d="M304.548,268.979V276.5a2.377,2.377,0,0,0,1.7,2.426V266.553A2.376,2.376,0,0,0,304.548,268.979Z" transform="translate(-304.548 -266.553)" fill="#474747"/>
              </g>
              <g id="Group_8263" data-name="Group 8263">
                <path id="Path_14868" data-name="Path 14868" d="M251.659,266.444a3.452,3.452,0,0,0-2.251,1.152c-.846,1.06-.846,9.012,0,10.072a3.448,3.448,0,0,0,2.251,1.153,2.711,2.711,0,0,0,1.391,0V266.443A2.711,2.711,0,0,0,251.659,266.444Z" transform="translate(-248.773 -266.353)" fill="#757575"/>
              </g>
              <g id="Group_8264" data-name="Group 8264" transform="translate(4.277 0.09)">
                <path id="Path_14869" data-name="Path 14869" d="M258.246,266.553V278.93a2.378,2.378,0,0,0,1.7-2.426v-7.525A2.378,2.378,0,0,0,258.246,266.553Z" transform="translate(-258.246 -266.553)" fill="#474747"/>
              </g>
            </g>
          </g>
        </g>
        <g id="Group_8276" data-name="Group 8276" transform="translate(12.904 24.88)">
          <g id="Group_8274" data-name="Group 8274" transform="translate(0 2.422)">
            <path id="Path_14873" data-name="Path 14873" d="M279.773,302.2h2.336a2.422,2.422,0,0,0,2.422-2.422h-7.18A2.422,2.422,0,0,0,279.773,302.2Z" transform="translate(-277.352 -299.782)" fill="#474747"/>
          </g>
          <g id="Group_8275" data-name="Group 8275">
            <path id="Path_14874" data-name="Path 14874" d="M282.11,294.418h-2.336a2.422,2.422,0,0,0-2.421,2.422h7.18A2.422,2.422,0,0,0,282.11,294.418Z" transform="translate(-277.352 -294.418)" fill="#757575"/>
          </g>
        </g>
      </g>
    </g>
    <g id="Group_8284" data-name="Group 8284" transform="translate(-47.12 -59.388)">
      <g id="Group_8255" data-name="Group 8255" transform="translate(5049.43 4921.365)">
        <path id="Path_14862" data-name="Path 14862" d="M276.982,260.858h-4.538a5,5,0,0,0-5,5v.8a5,5,0,0,0,4.526,4.975l1.275,3.251.722-3.158c.327-.005.717-.028,1.139-.069h1.875a5,5,0,0,0,5-5v-.8A5,5,0,0,0,276.982,260.858Z" transform="translate(-267.444 -260.858)" fill="#f5f5f5"/>
      </g>
      <g id="Group_8281" data-name="Group 8281" transform="translate(5052.526 4924.786)">
        <g id="Group_8267" data-name="Group 8267">
          <path id="Path_14870" data-name="Path 14870" d="M282.523,269.1h-7.886a.335.335,0,1,1,0-.67h7.886a.335.335,0,1,1,0,.67Z" transform="translate(-274.301 -268.433)" fill="#474747"/>
        </g>
      </g>
      <g id="Group_8282" data-name="Group 8282" transform="translate(5052.526 4926.611)">
        <g id="Group_8269" data-name="Group 8269">
          <path id="Path_14871" data-name="Path 14871" d="M282.523,273.146h-7.886a.335.335,0,1,1,0-.67h7.886a.335.335,0,1,1,0,.67Z" transform="translate(-274.301 -272.476)" fill="#474747"/>
        </g>
      </g>
      <g id="Group_8283" data-name="Group 8283" transform="translate(5052.526 4928.437)">
        <g id="Group_8271" data-name="Group 8271">
          <path id="Path_14872" data-name="Path 14872" d="M282.523,277.189h-7.886a.335.335,0,1,1,0-.67h7.886a.335.335,0,1,1,0,.67Z" transform="translate(-274.301 -276.519)" fill="#474747"/>
        </g>
      </g>
    </g>
  </g>
</svg>
