<svg xmlns="http://www.w3.org/2000/svg" width="157.123" height="115.883" viewBox="0 0 157.123 115.883">
  <g id="Group_7985" data-name="Group 7985" transform="translate(-11898.203 362.084) rotate(-20)">
    <path id="Subtraction_7" data-name="Subtraction 7" d="M134,72H7a7.008,7.008,0,0,1-7-7V7A7.008,7.008,0,0,1,7,0H134a7.008,7.008,0,0,1,7,7V65A7.008,7.008,0,0,1,134,72ZM7.465,2.466a5.005,5.005,0,0,0-5,5V64.535a5.006,5.006,0,0,0,5,5h126.07a5.006,5.006,0,0,0,5-5V7.466a5.006,5.006,0,0,0-5-5Z" transform="translate(11288 3774.494)" fill="#e33e2a"/>
    <path id="Subtraction_6" data-name="Subtraction 6" d="M124,57H2a2,2,0,0,1-2-2V2A2,2,0,0,1,2,0H124a2,2,0,0,1,2,2V55A2,2,0,0,1,124,57ZM2.477,1.474a1,1,0,0,0-1,1V54.526a1,1,0,0,0,1,1H123.523a1,1,0,0,0,1-1V2.474a1,1,0,0,0-1-1Z" transform="translate(11296 3781.494)" fill="#e33e2a"/>
    <path id="Path_14676" data-name="Path 14676" d="M-106.467-34v1.456a1.476,1.476,0,0,0-1.059.626,2.638,2.638,0,0,0-.349,1.48v10.457a1.672,1.672,0,0,0,.114.584,1.78,1.78,0,0,0,.295.523,1.183,1.183,0,0,0,.409.343,1.82,1.82,0,0,0,.59.138v1.468a6.848,6.848,0,0,1-4.055-1.215,6.608,6.608,0,0,1-2.286-2.882,10.914,10.914,0,0,1-.77-4.29,11.119,11.119,0,0,1,.5-3.387,8.1,8.1,0,0,1,1.45-2.726,7.511,7.511,0,0,1,2.3-1.877,5.517,5.517,0,0,1,2.581-.71Zm.951,1.468v-1.456a8.113,8.113,0,0,1,.957.2q.367.108,1.33.457a3.194,3.194,0,0,0,.818.217.577.577,0,0,0,.529-.313l.156-.289a.548.548,0,0,1,.542-.289.639.639,0,0,1,.5.193.816.816,0,0,1,.174.566v5.006a.957.957,0,0,1-.217.7.68.68,0,0,1-.493.217.6.6,0,0,1-.463-.187,1.406,1.406,0,0,1-.283-.608,10.4,10.4,0,0,0-.493-1.492,6.822,6.822,0,0,0-1.179-1.853,3.922,3.922,0,0,0-.89-.74A2.636,2.636,0,0,0-105.516-32.529Zm.036,15.607v-1.468a4.445,4.445,0,0,0,1.973-.71,3.669,3.669,0,0,0,.987-.933,4.246,4.246,0,0,0,.65-1.282,1.35,1.35,0,0,1,.283-.548.578.578,0,0,1,.427-.162.617.617,0,0,1,.481.217.785.785,0,0,1,.193.542,2.893,2.893,0,0,1-.415,1.312,6.092,6.092,0,0,1-1.065,1.42,5.714,5.714,0,0,1-1.631,1.179A5.013,5.013,0,0,1-105.48-16.921Zm13.6-16.75h4.849l3.345,14.139a4.934,4.934,0,0,0,.217.662.827.827,0,0,0,.481.373,1.263,1.263,0,0,1,.433.265.516.516,0,0,1,.12.361q0,.626-.939.626h-6a.894.894,0,0,1-.578-.174.565.565,0,0,1-.217-.463.57.57,0,0,1,.1-.361,1.519,1.519,0,0,1,.433-.3.852.852,0,0,0,.337-.265.637.637,0,0,0,.1-.361,1.616,1.616,0,0,0-.036-.361l-.385-1.745h-3.357l.325-1.432h2.7l-2.214-9.783Zm-.83,3.056.614,2.491-2.13,7.774a2.287,2.287,0,0,0-.1.626,1.112,1.112,0,0,0,.71,1.083l.421.193a.618.618,0,0,1,.4.6q0,.6-.878.6h-3.056a1.182,1.182,0,0,1-.7-.187.6.6,0,0,1-.259-.511q0-.349.529-.578a3.923,3.923,0,0,0,.728-.391,2.151,2.151,0,0,0,.451-.475,4.269,4.269,0,0,0,.554-1.312ZM-73.932-34v1.384a2.338,2.338,0,0,0-1.137.632,1.5,1.5,0,0,0-.391,1.053,1.755,1.755,0,0,0,.325,1.053,3.2,3.2,0,0,0,1.059.86q.505.277,2.286,1.059a12.516,12.516,0,0,1,1.679.848,5.84,5.84,0,0,1,1.125.945,4.973,4.973,0,0,1,1.42,3.55,5.429,5.429,0,0,1-.77,2.84,5.463,5.463,0,0,1-2.118,2.022,7.16,7.16,0,0,1-1.582.608,6.434,6.434,0,0,1-1.606.223v-1.372a3.252,3.252,0,0,0,1.51-.7,1.626,1.626,0,0,0,.463-1.221,1.824,1.824,0,0,0-.722-1.42,8.583,8.583,0,0,0-1.829-.987q-1.48-.65-2.028-.927A7.37,7.37,0,0,1-77.3-24.2a5.025,5.025,0,0,1-2.262-4.3A5.707,5.707,0,0,1-79-31.031,4.82,4.82,0,0,1-77.422-32.9,6.545,6.545,0,0,1-73.932-34Zm.951,1.384v-1.324a6.785,6.785,0,0,1,1.251.187,12.239,12.239,0,0,1,1.5.548,1.124,1.124,0,0,0,.4.1.381.381,0,0,0,.337-.156l.265-.349a.566.566,0,0,1,.469-.265.523.523,0,0,1,.475.235,1.408,1.408,0,0,1,.15.74v3.971a.826.826,0,0,1-.2.572.654.654,0,0,1-.511.223.718.718,0,0,1-.445-.156.733.733,0,0,1-.174-.235,2.035,2.035,0,0,1-.126-.463,5.047,5.047,0,0,0-.457-1.215,5.592,5.592,0,0,0-.758-1.119A4.119,4.119,0,0,0-72.982-32.613Zm-1.576,14.32v1.372a5.138,5.138,0,0,1-2.178-.566q-.445-.2-.614-.265a.964.964,0,0,0-.325-.06.67.67,0,0,0-.361.078,2.3,2.3,0,0,0-.385.391.611.611,0,0,1-.469.265q-.674,0-.674-1.035v-4.38a.872.872,0,0,1,.193-.572.635.635,0,0,1,.481-.247.5.5,0,0,1,.415.15,1.385,1.385,0,0,1,.259.572,7.921,7.921,0,0,0,.8,1.937,6.225,6.225,0,0,0,1.221,1.528A3.324,3.324,0,0,0-74.558-18.293Zm18.7-7.942H-53.9v-5.247q0-.674-.349-.794l-.385-.12a.615.615,0,0,1-.457-.65q0-.626.866-.626h5.993q.9,0,.9.626a.63.63,0,0,1-.481.65q-.4.132-.463.162a.373.373,0,0,0-.138.138,1.032,1.032,0,0,0-.144.614v12q0,.662.361.806l.385.132a.638.638,0,0,1,.481.662q0,.638-.9.638h-6.017q-.842,0-.842-.638a.635.635,0,0,1,.457-.662l.385-.132q.349-.108.349-.806v-5.559H-55.86Zm-1.011,8.989h-5.68a1.165,1.165,0,0,1-.668-.162.53.53,0,0,1-.235-.463.63.63,0,0,1,.481-.65q.4-.132.463-.162a.373.373,0,0,0,.138-.138,1.032,1.032,0,0,0,.144-.614V-31.482a1.032,1.032,0,0,0-.144-.614.373.373,0,0,0-.138-.138q-.066-.03-.463-.162a.63.63,0,0,1-.481-.65.53.53,0,0,1,.235-.463,1.165,1.165,0,0,1,.668-.162h5.993q.854,0,.854.626a.615.615,0,0,1-.457.65l-.373.12q-.349.12-.349.794v12.045q0,.674.349.794l.373.12a.615.615,0,0,1,.457.65q0,.626-.854.626Zm28.2-15.451a1.678,1.678,0,0,0-.866.59,1.956,1.956,0,0,0-.253,1.1v10.758a2.826,2.826,0,0,0,.289,1.492,1.323,1.323,0,0,0,.83.517v1.324a6.937,6.937,0,0,1-4.476-2.01,8.774,8.774,0,0,1-2.347-6.51,10.934,10.934,0,0,1,.62-3.784,7.559,7.559,0,0,1,1.835-2.87,6.741,6.741,0,0,1,2-1.372A6.62,6.62,0,0,1-28.669-34Zm.987,0V-34a6.672,6.672,0,0,1,2.377.529,6.715,6.715,0,0,1,2,1.372,8.868,8.868,0,0,1,2.455,6.654,8.774,8.774,0,0,1-2.347,6.51,6.871,6.871,0,0,1-4.488,2.01v-1.324a1.526,1.526,0,0,0,.487-.187,1.148,1.148,0,0,0,.319-.331,2.746,2.746,0,0,0,.325-1.492V-31.012a2.012,2.012,0,0,0-.217-1.011,1.243,1.243,0,0,0-.343-.4A2.3,2.3,0,0,0-27.682-32.7Zm17.1-.975,6.4,11.119v5.307H-7.468l-8.171-14.079a3.8,3.8,0,0,0-.433-.638.989.989,0,0,0-.433-.265l-.457-.168a.557.557,0,0,1-.289-.217.6.6,0,0,1-.108-.349.705.705,0,0,1,.108-.379.594.594,0,0,1,.289-.247,4.088,4.088,0,0,1,1.107-.084Zm-5.042,4.224,1.276,2.118v6.45a2.979,2.979,0,0,0,.283,1.384,2.2,2.2,0,0,0,.9.89l.361.2a.587.587,0,0,1,.313.542.559.559,0,0,1-.229.457,1.367,1.367,0,0,1-.794.156H-16.3q-1.1,0-1.1-.626a.492.492,0,0,1,.114-.343,2.218,2.218,0,0,1,.5-.343,2.417,2.417,0,0,0,1.155-2.322Zm11.444,4.97-1.276-2.154v-3.333a3.265,3.265,0,0,0-.295-1.546,2.38,2.38,0,0,0-1.041-.921.875.875,0,0,1-.349-.259.608.608,0,0,1-.1-.355.544.544,0,0,1,.211-.475,1.192,1.192,0,0,1,.68-.15H-3.34a1.186,1.186,0,0,1,.806.193.607.607,0,0,1,.2.457.549.549,0,0,1-.114.379,2.126,2.126,0,0,1-.548.343,2.116,2.116,0,0,0-.963,1,3.226,3.226,0,0,0-.229,1.336ZM-107.712-9.028V7.4h-5.668a1.165,1.165,0,0,1-.668-.162.53.53,0,0,1-.235-.463.63.63,0,0,1,.481-.65q.4-.132.463-.162a.373.373,0,0,0,.138-.138,1.032,1.032,0,0,0,.144-.614V-6.837a1.032,1.032,0,0,0-.144-.614.373.373,0,0,0-.138-.138q-.066-.03-.463-.162a.63.63,0,0,1-.481-.65.53.53,0,0,1,.235-.463,1.165,1.165,0,0,1,.668-.162h5.668Zm2.431,12.984V-5.538a3.216,3.216,0,0,0-.253-1.4,1.18,1.18,0,0,0-.385-.493,2.137,2.137,0,0,0-.722-.265V-9.028a10.3,10.3,0,0,1,1.083.048,5.783,5.783,0,0,1,2.96,1.3,6.51,6.51,0,0,1,2.106,2.852,10.57,10.57,0,0,1,.71,3.947,10.083,10.083,0,0,1-.9,4.362,7.134,7.134,0,0,1-2.587,3,5.558,5.558,0,0,1-1.522.722,7.214,7.214,0,0,1-1.847.193V6.1a3.483,3.483,0,0,0,.7-.241.947.947,0,0,0,.343-.337,1.6,1.6,0,0,0,.247-.6A5.3,5.3,0,0,0-105.281,3.956Zm13.55-12.984V7.4H-97.4a1.165,1.165,0,0,1-.668-.162.53.53,0,0,1-.235-.463.63.63,0,0,1,.481-.65q.4-.132.463-.162a.373.373,0,0,0,.138-.138,1.032,1.032,0,0,0,.144-.614V-6.837a1.032,1.032,0,0,0-.144-.614.373.373,0,0,0-.138-.138q-.066-.03-.463-.162A.63.63,0,0,1-98.3-8.4a.53.53,0,0,1,.235-.463,1.165,1.165,0,0,1,.668-.162h5.668Zm1.071,0h4.849v4.26a.825.825,0,0,1-.144.542.571.571,0,0,1-.457.168.566.566,0,0,1-.385-.108,1.061,1.061,0,0,1-.229-.445,4.507,4.507,0,0,0-1.342-2.13,4.163,4.163,0,0,0-2.292-.878Zm-.06,8.76v-1.4A3.121,3.121,0,0,0-89.686-2.4a2.5,2.5,0,0,0,.493-1.059,1.415,1.415,0,0,1,.253-.632.567.567,0,0,1,.445-.174.534.534,0,0,1,.529.3,1.836,1.836,0,0,1,.084.71V1.333a1.692,1.692,0,0,1-.126.782.49.49,0,0,1-.463.217.562.562,0,0,1-.433-.168,1.285,1.285,0,0,1-.253-.566A3.1,3.1,0,0,0-89.74.322,1.8,1.8,0,0,0-90.721-.267Zm.072,7.665V6.1a5.512,5.512,0,0,0,1.294-.337A3.971,3.971,0,0,0-88.326,5.1a4.327,4.327,0,0,0,.824-.921,6.1,6.1,0,0,0,.584-1.257,1.364,1.364,0,0,1,.277-.523.55.55,0,0,1,.4-.138.522.522,0,0,1,.469.2,1.316,1.316,0,0,1,.132.692V7.4Zm13.381,0h-5.668a1.165,1.165,0,0,1-.668-.162.53.53,0,0,1-.235-.463.63.63,0,0,1,.481-.65q.4-.132.463-.162a.373.373,0,0,0,.138-.138,1.032,1.032,0,0,0,.144-.614V-6.837a1.032,1.032,0,0,0-.144-.614.373.373,0,0,0-.138-.138q-.066-.03-.463-.162a.63.63,0,0,1-.481-.65.53.53,0,0,1,.235-.463,1.165,1.165,0,0,1,.668-.162h6.089a1.484,1.484,0,0,1,.758.144.576.576,0,0,1,.313.505.64.64,0,0,1-.578.662,5.291,5.291,0,0,0-.554.144.545.545,0,0,0-.181.144,1.041,1.041,0,0,0-.18.674Zm.975,0V6.05a5.391,5.391,0,0,0,.933-.241,2.444,2.444,0,0,0,.656-.385,4,4,0,0,0,.927-1.1,7,7,0,0,0,.686-1.552,2.977,2.977,0,0,1,.355-.872.564.564,0,0,1,.475-.211.526.526,0,0,1,.493.277A1.271,1.271,0,0,1-71.7,2.5V7.4Zm12.166,0h-5.68a1.165,1.165,0,0,1-.668-.162.53.53,0,0,1-.235-.463.63.63,0,0,1,.481-.65q.4-.132.463-.162a.373.373,0,0,0,.138-.138,1.032,1.032,0,0,0,.144-.614V-6.837a1.032,1.032,0,0,0-.144-.614.373.373,0,0,0-.138-.138q-.066-.03-.463-.162a.63.63,0,0,1-.481-.65.53.53,0,0,1,.235-.463,1.165,1.165,0,0,1,.668-.162h5.993a1.165,1.165,0,0,1,.668.162.53.53,0,0,1,.235.463.63.63,0,0,1-.481.65q-.4.132-.463.162a.373.373,0,0,0-.138.138,1.032,1.032,0,0,0-.144.614V5.208a1.032,1.032,0,0,0,.144.614.373.373,0,0,0,.138.138q.066.03.463.162a.63.63,0,0,1,.481.65.53.53,0,0,1-.235.463,1.165,1.165,0,0,1-.668.162Zm12.19-4.212L-53.081,7.4h-3.165l-4.284-14.38a1.573,1.573,0,0,0-.181-.439.674.674,0,0,0-.265-.2,1.483,1.483,0,0,1-.505-.289.573.573,0,0,1-.12-.4.636.636,0,0,1,.325-.566,1.648,1.648,0,0,1,.83-.156h5.355A6.466,6.466,0,0,1-54.4-9a.79.79,0,0,1,.307.1.679.679,0,0,1,.2.241.635.635,0,0,1,.084.3.656.656,0,0,1-.421.638,1.141,1.141,0,0,0-.427.319.8.8,0,0,0-.114.463,1.4,1.4,0,0,0,.036.337Zm.457-1.721L-52.118-.8l1.384-5.066a5.871,5.871,0,0,0,.144-.59,1.2,1.2,0,0,0-.12-.59.975.975,0,0,0-.6-.554l-.4-.144a.606.606,0,0,1-.469-.614.563.563,0,0,1,.265-.5,1.325,1.325,0,0,1,.734-.174h2.948a1.545,1.545,0,0,1,.722.108.576.576,0,0,1,.289.517.633.633,0,0,1-.09.361.776.776,0,0,1-.331.241l-.614.289A1.933,1.933,0,0,0-49-6.8a4.293,4.293,0,0,0-.548,1.221ZM-39.495-9.028V7.4h-5.668a1.165,1.165,0,0,1-.668-.162.53.53,0,0,1-.235-.463.63.63,0,0,1,.481-.65q.4-.132.463-.162a.373.373,0,0,0,.138-.138,1.032,1.032,0,0,0,.144-.614V-6.837a1.032,1.032,0,0,0-.144-.614.373.373,0,0,0-.138-.138q-.066-.03-.463-.162a.63.63,0,0,1-.481-.65.53.53,0,0,1,.235-.463,1.165,1.165,0,0,1,.668-.162h5.668Zm1.071,0h4.849v4.26a.825.825,0,0,1-.144.542.571.571,0,0,1-.457.168.566.566,0,0,1-.385-.108,1.061,1.061,0,0,1-.229-.445,4.507,4.507,0,0,0-1.342-2.13,4.163,4.163,0,0,0-2.292-.878Zm-.06,8.76v-1.4A3.121,3.121,0,0,0-37.449-2.4a2.5,2.5,0,0,0,.493-1.059,1.415,1.415,0,0,1,.253-.632.567.567,0,0,1,.445-.174.534.534,0,0,1,.529.3,1.837,1.837,0,0,1,.084.71V1.333a1.692,1.692,0,0,1-.126.782.49.49,0,0,1-.463.217.562.562,0,0,1-.433-.168A1.285,1.285,0,0,1-36.92,1.6,3.1,3.1,0,0,0-37.5.322,1.8,1.8,0,0,0-38.484-.267Zm.072,7.665V6.1a5.512,5.512,0,0,0,1.294-.337A3.971,3.971,0,0,0-36.089,5.1a4.327,4.327,0,0,0,.824-.921,6.105,6.105,0,0,0,.584-1.257A1.364,1.364,0,0,1-34.4,2.4a.55.55,0,0,1,.4-.138.522.522,0,0,1,.469.2,1.316,1.316,0,0,1,.132.692V7.4ZM-25.031-9.028V5.112a1.011,1.011,0,0,0,.181.674.447.447,0,0,0,.181.15q.084.03.554.15a.64.64,0,0,1,.578.662.576.576,0,0,1-.313.505,1.484,1.484,0,0,1-.758.144H-30.7a1.165,1.165,0,0,1-.668-.162.53.53,0,0,1-.235-.463.63.63,0,0,1,.481-.65q.4-.132.463-.162a.373.373,0,0,0,.138-.138,1.032,1.032,0,0,0,.144-.614V-6.837a1.032,1.032,0,0,0-.144-.614.373.373,0,0,0-.138-.138q-.066-.03-.463-.162A.63.63,0,0,1-31.6-8.4a.53.53,0,0,1,.235-.463,1.165,1.165,0,0,1,.668-.162h5.668Zm3.694,8.375a10.308,10.308,0,0,1,1.7.373,4.079,4.079,0,0,1,1.077.554,2.6,2.6,0,0,1,.776.89,2.329,2.329,0,0,1,.271,1.1V4.751q0,.385.253.385a.248.248,0,0,0,.162-.054,1.4,1.4,0,0,0,.187-.211.812.812,0,0,1,.614-.409.578.578,0,0,1,.409.217.639.639,0,0,1,.2.433,1.751,1.751,0,0,1-.355.909,4.151,4.151,0,0,1-.884.957,3.151,3.151,0,0,1-1.071.572,4.724,4.724,0,0,1-1.36.174,3.312,3.312,0,0,1-2.479-.909,3.464,3.464,0,0,1-.89-2.533V2.26q0-.674-.012-.782a1.633,1.633,0,0,0-.337-.83,1.443,1.443,0,0,0-1-.493V-1.134a1.838,1.838,0,0,0,.927-.337,1.133,1.133,0,0,0,.331-.493,2.8,2.8,0,0,0,.09-.818V-5.971A1.807,1.807,0,0,0-23.015-7.1a2.027,2.027,0,0,0-1.065-.59V-9.028h.313q1.336,0,2.274.1A5.022,5.022,0,0,1-19-8.017a3.677,3.677,0,0,1,1.576,3.189,3.81,3.81,0,0,1-1.059,2.78,3.68,3.68,0,0,1-1.041.746A12.789,12.789,0,0,1-21.337-.652Zm15.86.517V5.112a1.011,1.011,0,0,0,.181.674.447.447,0,0,0,.18.15q.084.03.554.15a.64.64,0,0,1,.578.662.574.574,0,0,1-.325.529,1.564,1.564,0,0,1-.746.12h-6.173a1.444,1.444,0,0,1-.758-.144.576.576,0,0,1-.313-.505.64.64,0,0,1,.578-.662q.469-.12.554-.15A.381.381,0,0,0-11,5.786a1.011,1.011,0,0,0,.181-.674V1.044l-3.405-8.123a1.332,1.332,0,0,0-.542-.662,1.7,1.7,0,0,1-.415-.325.552.552,0,0,1-.09-.337q0-.626.915-.626h5.9a1.369,1.369,0,0,1,.65.108.58.58,0,0,1,.3.505.674.674,0,0,1-.349.6l-.349.217a.442.442,0,0,0-.2.4,1.4,1.4,0,0,0,.132.59Zm.469-1.143-.674-1.576,1.264-2.828a2.536,2.536,0,0,0,.156-.987,1.037,1.037,0,0,0-.77-1,1.8,1.8,0,0,1-.548-.295.533.533,0,0,1-.126-.391.587.587,0,0,1,.217-.493.794.794,0,0,1,.325-.144,3.669,3.669,0,0,1,.626-.036h2.972q.842,0,.842.674a.553.553,0,0,1-.114.373,1.292,1.292,0,0,1-.439.277,2.727,2.727,0,0,0-.842.529,3.552,3.552,0,0,0-.6.878L-3-5.682Z" transform="translate(11416.083 3823.398)" fill="#e33e2a"/>
  </g>
</svg>
