<?xml version="1.0" encoding="utf-8"?>
<!-- Generator: Adobe Illustrator 25.0.1, SVG Export Plug-In . SVG Version: 6.00 Build 0)  -->
<svg version="1.1" id="Layer_1" xmlns="http://www.w3.org/2000/svg" xmlns:xlink="http://www.w3.org/1999/xlink" x="0px" y="0px"
	 viewBox="0 0 189 40" style="enable-background:new 0 0 189 40;" xml:space="preserve">
<style type="text/css">
	.st0{enable-background:new    ;}
	.st1{fill:#F5A100;}
	.st2{fill:#444444;}
	.st3{fill:#545454;}
</style>
<g id="Group_8038" transform="translate(-310 -47)">
	<g class="st0">
		<path class="st1" d="M380.2,57.5v3.2H375V77h-3.9V60.6h-5.2v-3.2H380.2z"/>
		<path class="st1" d="M399.3,57.5V77h-3.9v-8.3H387V77h-3.9V57.5h3.9v8h8.4v-8H399.3z"/>
		<path class="st1" d="M407.1,60.6v4.9h6.6v3.1h-6.6v5.2h7.4V77h-11.3V57.4h11.3v3.2H407.1z"/>
	</g>
	<g class="st0">
		<path class="st2" d="M427.8,76.5c-1.1-0.5-2-1.1-2.6-2c-0.6-0.9-1-1.9-1-3.1h4.2c0.1,0.8,0.3,1.4,0.9,1.9c0.5,0.5,1.2,0.7,2.1,0.7
			c0.9,0,1.6-0.2,2.2-0.7s0.8-1,0.8-1.7c0-0.6-0.2-1.1-0.5-1.4c-0.4-0.4-0.8-0.7-1.3-0.9c-0.5-0.2-1.3-0.5-2.2-0.7
			c-1.3-0.4-2.3-0.7-3.1-1.1c-0.8-0.4-1.5-0.9-2-1.7s-0.9-1.7-0.9-3c0-1.2,0.3-2.2,0.9-3c0.6-0.9,1.4-1.5,2.4-2
			c1-0.5,2.2-0.7,3.6-0.7c2,0,3.7,0.5,4.9,1.5c1.3,1,2,2.3,2.1,4.1h-4.3c0-0.7-0.3-1.2-0.9-1.7s-1.2-0.7-2.1-0.7
			c-0.8,0-1.4,0.2-1.8,0.6c-0.5,0.4-0.7,1-0.7,1.7c0,0.5,0.2,1,0.5,1.3c0.3,0.3,0.8,0.6,1.3,0.8s1.2,0.5,2.2,0.7
			c1.3,0.4,2.3,0.7,3.1,1.1c0.8,0.4,1.5,0.9,2.1,1.7c0.6,0.7,0.9,1.7,0.9,2.9c0,1-0.3,2-0.8,2.9c-0.5,0.9-1.3,1.6-2.4,2.1
			c-1,0.5-2.3,0.8-3.7,0.8C430.1,77.2,428.9,77,427.8,76.5z"/>
		<path class="st2" d="M458,57.5V77h-3.9v-8.3h-8.4V77h-3.9V57.5h3.9v8h8.4v-8H458z"/>
		<path class="st2" d="M465.9,75.9c-1.5-0.9-2.7-2-3.6-3.6c-0.9-1.5-1.3-3.2-1.3-5.2c0-1.9,0.4-3.6,1.3-5.1c0.9-1.5,2.1-2.7,3.6-3.6
			c1.5-0.9,3.2-1.3,5-1.3c1.8,0,3.5,0.4,5.1,1.3c1.5,0.9,2.7,2,3.6,3.6s1.3,3.2,1.3,5.1c0,1.9-0.4,3.6-1.3,5.2s-2.1,2.7-3.6,3.6
			s-3.2,1.3-5,1.3S467.4,76.8,465.9,75.9z M474,72.9c0.9-0.5,1.6-1.3,2.1-2.3s0.8-2.1,0.8-3.4s-0.3-2.5-0.8-3.4
			c-0.5-1-1.2-1.7-2.1-2.3c-0.9-0.5-1.9-0.8-3.1-0.8c-1.2,0-2.2,0.3-3.1,0.8s-1.6,1.3-2.1,2.3c-0.5,1-0.8,2.1-0.8,3.4
			s0.3,2.5,0.8,3.4s1.2,1.8,2.1,2.3c0.9,0.5,1.9,0.8,3.1,0.8C472.1,73.7,473.1,73.4,474,72.9z"/>
		<path class="st2" d="M497.3,66.4c-0.5,0.9-1.3,1.7-2.3,2.2c-1.1,0.6-2.4,0.8-4,0.8h-3.3V77h-3.9V57.5h7.2c1.5,0,2.8,0.3,3.9,0.8
			c1.1,0.5,1.9,1.2,2.4,2.2c0.5,0.9,0.8,2,0.8,3.1C498.1,64.5,497.8,65.5,497.3,66.4z M493.3,65.6c0.5-0.5,0.8-1.2,0.8-2.1
			c0-1.9-1.1-2.9-3.2-2.9h-3.1v5.7h3.1C491.9,66.3,492.7,66.1,493.3,65.6z"/>
	</g>
	<g id="Group_8012" transform="translate(32.346 -353.89)">
		<g id="LWPOLYLINE">
			<path id="Path_3078" class="st3" d="M315.2,421.1l2.2-8.3c0.9-3.3-1.1-6.7-4.4-7.6c-0.5-0.1-1.1-0.2-1.6-0.2h-18.1
				c-1.1,0-2.1,0.9-2.1,2.1s0.9,2.1,2.1,2.1h18.1c1.1,0,2.1,0.9,2.1,2.1c0,0.2,0,0.4-0.1,0.5l-2.2,8.3c-0.2,0.9-1.1,1.5-2,1.5h-11.5
				c-1.1,0-2.1,0.9-2.1,2.1s0.9,2.1,2.1,2.1h11.5C312,425.7,314.5,423.8,315.2,421.1z"/>
		</g>
		<g id="ARC">
			<path id="Path_3079" class="st3" d="M279.7,400.9c-1.1,0-2.1,0.9-2.1,2.1s0.9,2.1,2.1,2.1h1.2c0.9,0,1.8,0.6,2,1.5l5.7,21.5
				c0.7,2.7,3.2,4.6,6,4.6h16.5c1.1,0,2.1-0.9,2.1-2.1l0,0l0,0c0-1.1-0.9-2.1-2.1-2.1l0,0h-16.5c-0.9,0-1.8-0.6-2-1.5l-5.7-21.5
				c-0.7-2.7-3.2-4.6-6-4.6H279.7z"/>
		</g>
		<g id="CIRCLE">
			<path id="Path_3080" class="st3" d="M305.7,438.1c0-1.5,1.2-2.8,2.8-2.8s2.8,1.2,2.8,2.8c0,1.5-1.2,2.8-2.8,2.8
				C306.9,440.9,305.7,439.7,305.7,438.1C305.7,438.1,305.7,438.1,305.7,438.1z"/>
		</g>
		<g id="CIRCLE-2">
			<path id="Path_3081" class="st3" d="M292.2,438.1c0-1.5,1.2-2.8,2.8-2.8s2.8,1.2,2.8,2.8c0,1.5-1.2,2.8-2.8,2.8
				C293.4,440.9,292.2,439.7,292.2,438.1C292.2,438.1,292.2,438.1,292.2,438.1z"/>
		</g>
	</g>
</g>
</svg>
