<svg xmlns="http://www.w3.org/2000/svg" width="132.495" height="137.55" viewBox="0 0 132.495 137.55">
  <g id="Group_7984" data-name="Group 7984" transform="translate(-12133.348 -261.341) rotate(-20)">
    <g id="Group_7982" data-name="Group 7982" transform="translate(10400.517 3202.13)">
      <path id="Subtraction_5" data-name="Subtraction 5" d="M-8522-2749.58a54.633,54.633,0,0,1-21.408-4.322,54.78,54.78,0,0,1-17.482-11.786,54.8,54.8,0,0,1-11.085-15.889h4.465a50.825,50.825,0,0,0,45.511,28,50.825,50.825,0,0,0,45.511-28h4.463a54.83,54.83,0,0,1-11.083,15.889,54.747,54.747,0,0,1-17.482,11.786A54.633,54.633,0,0,1-8522-2749.58Zm0-10a44.737,44.737,0,0,1-17.515-3.536,44.813,44.813,0,0,1-14.306-9.644,45.186,45.186,0,0,1-6.87-8.819h2.374a42.854,42.854,0,0,0,36.316,20,42.855,42.855,0,0,0,36.317-20h2.371a45.2,45.2,0,0,1-6.87,8.819,44.815,44.815,0,0,1-14.3,9.644A44.73,44.73,0,0,1-8522-2759.579Zm-36.318-68h-2.372a45.046,45.046,0,0,1,6.87-8.819,44.809,44.809,0,0,1,14.306-9.644,44.7,44.7,0,0,1,17.515-3.536,44.7,44.7,0,0,1,17.515,3.536,44.8,44.8,0,0,1,14.3,9.644,45.118,45.118,0,0,1,6.87,8.817h-2.37a42.854,42.854,0,0,0-36.318-20,42.855,42.855,0,0,0-36.318,20Zm-9.192,0h-4.465a54.779,54.779,0,0,1,11.085-15.889,54.777,54.777,0,0,1,17.482-11.788,54.676,54.676,0,0,1,21.408-4.322,54.676,54.676,0,0,1,21.408,4.322,54.753,54.753,0,0,1,17.482,11.788,54.781,54.781,0,0,1,11.082,15.887h-4.461a50.825,50.825,0,0,0-45.512-28,50.825,50.825,0,0,0-45.511,28Z" transform="translate(9472 4085.001)" fill="#2ba14b"/>
      <path id="Polygon_1" data-name="Polygon 1" d="M5,0,6.675,3.1,10,3.82,7.71,6.454,8.09,10,5,8.524,1.91,10l.38-3.546L0,3.82,3.325,3.1Z" transform="translate(944.402 1242.718)" fill="#2ba14b"/>
      <path id="Polygon_5" data-name="Polygon 5" d="M5,0,6.675,3.1,10,3.82,7.71,6.454,8.09,10,5,8.524,1.91,10l.38-3.546L0,3.82,3.325,3.1Z" transform="translate(945 1306)" fill="#2ba14b"/>
      <path id="Polygon_2" data-name="Polygon 2" d="M4,0,5.34,2.483,8,3.056,6.168,5.163,6.472,8,4,6.819,1.528,8l.3-2.837L0,3.056l2.66-.573Z" transform="translate(959.402 1244.718)" fill="#2ba14b"/>
      <path id="Polygon_6" data-name="Polygon 6" d="M4,0,5.34,2.483,8,3.056,6.168,5.163,6.472,8,4,6.819,1.528,8l.3-2.837L0,3.056l2.66-.573Z" transform="translate(960 1306)" fill="#2ba14b"/>
      <path id="Polygon_3" data-name="Polygon 3" d="M4,0,5.34,2.483,8,3.056,6.168,5.163,6.472,8,4,6.819,1.528,8l.3-2.837L0,3.056l2.66-.573Z" transform="translate(931.402 1244.718)" fill="#2ba14b"/>
      <path id="Polygon_4" data-name="Polygon 4" d="M4,0,5.34,2.483,8,3.056,6.168,5.163,6.472,8,4,6.819,1.528,8l.3-2.837L0,3.056l2.66-.573Z" transform="translate(932 1306)" fill="#2ba14b"/>
      <path id="Path_14675" data-name="Path 14675" d="M-49.675-33.325V-4.639a2.052,2.052,0,0,0,.366,1.367.906.906,0,0,0,.366.305q.171.061,1.123.305a1.3,1.3,0,0,1,1.172,1.343,1.169,1.169,0,0,1-.635,1.025A3.01,3.01,0,0,1-48.821,0H-61.174a2.364,2.364,0,0,1-1.355-.33,1.075,1.075,0,0,1-.476-.94,1.278,1.278,0,0,1,.977-1.318q.806-.269.94-.33a.757.757,0,0,0,.281-.281,2.094,2.094,0,0,0,.293-1.245V-28.882a2.094,2.094,0,0,0-.293-1.245.757.757,0,0,0-.281-.281q-.134-.061-.94-.33a1.278,1.278,0,0,1-.977-1.318,1.075,1.075,0,0,1,.476-.94,2.364,2.364,0,0,1,1.355-.33h11.5ZM-47.6-12.769v-2.612a5.225,5.225,0,0,0,1.477-.513,2.267,2.267,0,0,0,.745-.83,5.429,5.429,0,0,0,.513-2.563V-27.1a6.314,6.314,0,0,0-.171-1.709,2.281,2.281,0,0,0-.684-1.025,3.336,3.336,0,0,0-1.9-.854v-2.637a21.434,21.434,0,0,1,7.422.952A9.549,9.549,0,0,1-35.833-29,9.62,9.62,0,0,1-34.2-23.315a10.561,10.561,0,0,1-1.66,6.152A9.645,9.645,0,0,1-40.5-13.672,21.623,21.623,0,0,1-47.6-12.769Zm31.2-20.557h9.839L.222-4.639A10.009,10.009,0,0,0,.662-3.3a1.677,1.677,0,0,0,.977.757A2.563,2.563,0,0,1,2.517-2a1.048,1.048,0,0,1,.244.732Q2.761,0,.857,0H-11.326A1.813,1.813,0,0,1-12.5-.354a1.146,1.146,0,0,1-.439-.94,1.157,1.157,0,0,1,.2-.732,3.081,3.081,0,0,1,.879-.61,1.728,1.728,0,0,0,.684-.537,1.293,1.293,0,0,0,.2-.732,3.278,3.278,0,0,0-.073-.732l-.781-3.54H-18.65l.659-2.905h5.469l-4.492-19.849Zm-1.685,6.2,1.245,5.054L-21.165-6.3a4.641,4.641,0,0,0-.2,1.27,2.257,2.257,0,0,0,1.44,2.2l.854.391a1.254,1.254,0,0,1,.806,1.221Q-18.259,0-20.042,0h-6.2a2.4,2.4,0,0,1-1.428-.378A1.21,1.21,0,0,1-28.2-1.416q0-.708,1.074-1.172a7.959,7.959,0,0,0,1.477-.793,4.364,4.364,0,0,0,.916-.964,8.661,8.661,0,0,0,1.123-2.661ZM23.118,0H11.594a2.364,2.364,0,0,1-1.355-.33,1.075,1.075,0,0,1-.476-.94,1.278,1.278,0,0,1,.977-1.318q.806-.269.94-.33A.757.757,0,0,0,11.96-3.2a2.094,2.094,0,0,0,.293-1.245V-28.882a2.094,2.094,0,0,0-.293-1.245.757.757,0,0,0-.281-.281q-.134-.061-.94-.33a1.278,1.278,0,0,1-.977-1.318,1.075,1.075,0,0,1,.476-.94,2.364,2.364,0,0,1,1.355-.33H23.752a2.364,2.364,0,0,1,1.355.33,1.075,1.075,0,0,1,.476.94,1.278,1.278,0,0,1-.977,1.318q-.806.269-.94.33a.757.757,0,0,0-.281.281,2.094,2.094,0,0,0-.293,1.245V-4.443A2.094,2.094,0,0,0,23.386-3.2a.757.757,0,0,0,.281.281q.134.061.94.33a1.278,1.278,0,0,1,.977,1.318,1.075,1.075,0,0,1-.476.94A2.364,2.364,0,0,1,23.752,0Zm24.8-33.325V0h-11.5a2.364,2.364,0,0,1-1.355-.33,1.075,1.075,0,0,1-.476-.94,1.278,1.278,0,0,1,.977-1.318q.806-.269.94-.33a.757.757,0,0,0,.281-.281,2.094,2.094,0,0,0,.293-1.245V-28.882a2.094,2.094,0,0,0-.293-1.245.757.757,0,0,0-.281-.281q-.134-.061-.94-.33a1.278,1.278,0,0,1-.977-1.318,1.075,1.075,0,0,1,.476-.94,2.364,2.364,0,0,1,1.355-.33h11.5ZM52.849-6.982V-26.245a6.526,6.526,0,0,0-.513-2.832,2.394,2.394,0,0,0-.781-1,4.337,4.337,0,0,0-1.465-.537v-2.71a20.9,20.9,0,0,1,2.2.1,11.732,11.732,0,0,1,6.006,2.637A13.209,13.209,0,0,1,62.566-24.8a21.446,21.446,0,0,1,1.44,8.008,20.457,20.457,0,0,1-1.831,8.85,14.474,14.474,0,0,1-5.249,6.091A11.277,11.277,0,0,1,53.838-.391,14.636,14.636,0,0,1,50.09,0V-2.637a7.066,7.066,0,0,0,1.428-.488,1.921,1.921,0,0,0,.7-.684,3.253,3.253,0,0,0,.5-1.208A10.757,10.757,0,0,0,52.849-6.982Z" transform="translate(951.056 1296.747)" fill="#2ba14b"/>
    </g>
  </g>
</svg>
