<svg xmlns="http://www.w3.org/2000/svg" width="30" height="30" viewBox="0 0 30 30">
  <g id="Group_830" data-name="Group 830" transform="translate(-0.001)">
    <circle id="Ellipse_21" data-name="Ellipse 21" cx="15" cy="15" r="15" transform="translate(0.001 0)" fill="#55acee"/>
    <g id="Group_781" data-name="Group 781" transform="translate(6.713 9.099)">
      <path id="Path_2626" data-name="Path 2626" d="M42.579,35.709a7.154,7.154,0,0,1-2.059.564A3.6,3.6,0,0,0,42.1,34.29a7.178,7.178,0,0,1-2.277.87,3.588,3.588,0,0,0-6.11,3.271,10.178,10.178,0,0,1-7.39-3.747,3.589,3.589,0,0,0,1.109,4.787,3.56,3.56,0,0,1-1.624-.449c0,.015,0,.03,0,.045a3.588,3.588,0,0,0,2.876,3.515,3.6,3.6,0,0,1-1.619.062,3.589,3.589,0,0,0,3.349,2.49A7.238,7.238,0,0,1,25.1,46.62a10.2,10.2,0,0,0,15.7-8.591c0-.155,0-.31-.01-.464a7.271,7.271,0,0,0,1.789-1.856Z" transform="translate(-25.103 -34.028)" fill="#f1f2f2"/>
    </g>
  </g>
</svg>
